# xmcd CD database file
# Copyright (C) 1995-1998 Ti Kan
#
# Track frame offsets:
#	150
#	9328
#	22956
#	37068
#	52043
#	61865
#	77933
#	91941
#	105712
#	120328
#
# Disc length: 1801 seconds
#
# Revision: 1
# Processed by: cddbd v1.4b41PL3 Copyright (c) Steve Scherf et al.
# Submitted via: CDex 1.30
#
DISCID=7307070a
DTITLE=Various Artist - Tribal Beats
DYEAR=2001
DGENRE=Native American
TTITLE0=Welcome Song
TTITLE1=Dance Of The Spirits
TTITLE2=Tropical Intrigue
TTITLE3=Bay Of Plenty
TTITLE4=Open Port
TTITLE5=Tribal Instincts
TTITLE6=Nullarbor Crossing
TTITLE7=Village Children
TTITLE8=Marae
TTITLE9=Freedom Dance
EXTD=\nYEAR: 2001  ID3G:  64
EXTT0=
EXTT1=
EXTT2=
EXTT3=
EXTT4=
EXTT5=
EXTT6=
EXTT7=
EXTT8=
EXTT9=
PLAYORDER=
